<?xml version="1.0" encoding="utf-8"?><!DOCTYPE svg PUBLIC "-//W3C//DTD SVG 1.1//EN" "http://www.w3.org/Graphics/SVG/1.1/DTD/svg11.dtd"><svg width="132" height="132" viewBox="0 0 132 132" xmlns="http://www.w3.org/2000/svg" xmlns:xlink="http://www.w3.org/1999/xlink"><svg width="44" height="44" viewBox="-2 -2 77.5 68.9" id="home" xmlns="http://www.w3.org/2000/svg"><path fill="#e0e0e0" d="M60.1 63.6c1.3 0 2.3-1 2.3-2.3V36.8h6c2.2 0 4-1.8 4-4 0-1.3-.6-2.4-1.5-3.1L63.2 23V11.8c0-1.3-1.1-2.4-2.4-2.4h-4.9c-1.3 0-2.4 1.1-2.4 2.4v2.8l-13.8-12c-1.5-1.3-3.7-1.3-5.2 0L3 29.9c-1.3 1.1-1.7 2.8-1.1 4.4.6 1.6 2.1 2.6 3.7 2.6h6v24.5c0 1.3 1 2.3 2.3 2.3h13.5V45.8c0-2.5 2-4.6 4.6-4.6h10c2.5 0 4.6 2 4.6 4.6v17.8h13.5z"/></svg><svg width="44" height="44" viewBox="-2 -2 77.5 68.9" id="home_active" x="44" xmlns="http://www.w3.org/2000/svg"><path fill="#00838c" d="M60.1 63.6c1.3 0 2.3-1 2.3-2.3V36.8h6c2.2 0 4-1.8 4-4 0-1.3-.6-2.4-1.5-3.1L63.2 23V11.8c0-1.3-1.1-2.4-2.4-2.4h-4.9c-1.3 0-2.4 1.1-2.4 2.4v2.8l-13.8-12c-1.5-1.3-3.7-1.3-5.2 0L3 29.9c-1.3 1.1-1.7 2.8-1.1 4.4.6 1.6 2.1 2.6 3.7 2.6h6v24.5c0 1.3 1 2.3 2.3 2.3h13.5V45.8c0-2.5 2-4.6 4.6-4.6h10c2.5 0 4.6 2 4.6 4.6v17.8h13.5z"/></svg><svg width="44" height="44" viewBox="-2 -2 52 52" id="info" y="44" xmlns="http://www.w3.org/2000/svg"><defs><path fill="#e0e0e0" id="ca" d="M33 42c-2.43 0-4-1.57-4-4V15l-.093-1H14v6h1c2.43 0 4 1.57 4 4v14c0 2.43-1.57 4-4 4h-1v6h20v-6h-1zm-1 4H16v-2.068c2.99-.423 5-2.744 5-5.932V24c0-3.189-2.01-5.51-5-5.932V16h11v22c0 3.188 2.011 5.509 5 5.932V46zm-8-34c3.308 0 6-2.691 6-6s-2.692-6-6-6c-3.309 0-6 2.691-6 6s2.691 6 6 6zm0-10c2.206 0 4 1.795 4 4s-1.794 4-4 4-4-1.795-4-4 1.794-4 4-4z"/></defs><use xlink:href="#ca"/></svg><svg width="44" height="44" viewBox="-2 -2 52 52" id="info_active" x="44" y="44" xmlns="http://www.w3.org/2000/svg"><defs><path fill="#00838c" id="da" d="M33 42c-2.43 0-4-1.57-4-4V15l-.093-1H14v6h1c2.43 0 4 1.57 4 4v14c0 2.43-1.57 4-4 4h-1v6h20v-6h-1zm-1 4H16v-2.068c2.99-.423 5-2.744 5-5.932V24c0-3.189-2.01-5.51-5-5.932V16h11v22c0 3.188 2.011 5.509 5 5.932V46zm-8-34c3.308 0 6-2.691 6-6s-2.692-6-6-6c-3.309 0-6 2.691-6 6s2.691 6 6 6zm0-10c2.206 0 4 1.795 4 4s-1.794 4-4 4-4-1.795-4-4 1.794-4 4-4z"/></defs><use xlink:href="#da"/></svg><svg width="44" height="44" viewBox="-2 -2 26 18" id="producers" x="88" xmlns="http://www.w3.org/2000/svg"><g fill="none"><path d="M-1-5h24v24H-1z"/><path d="M15 6c1.66 0 2.99-1.34 2.99-3S16.66 0 15 0c-1.66 0-3 1.34-3 3s1.34 3 3 3zM7 6c1.66 0 2.99-1.34 2.99-3S8.66 0 7 0C5.34 0 4 1.34 4 3s1.34 3 3 3zm0 2c-2.33 0-7 1.17-7 3.5V13c0 .55.45 1 1 1h12c.55 0 1-.45 1-1v-1.5C14 9.17 9.33 8 7 8zm8 0c-.29 0-.62.02-.97.05.02.01.03.03.04.04 1.14.83 1.93 1.94 1.93 3.41V13c0 .35-.07.69-.18 1H21c.55 0 1-.45 1-1v-1.5C22 9.17 17.33 8 15 8z" fill="#e0e0e0"/></g></svg><svg width="44" height="44" viewBox="-2 -2 26 18" id="producers_active" x="88" y="44" xmlns="http://www.w3.org/2000/svg"><g fill="none"><path d="M-1-5h24v24H-1z"/><path d="M15 6c1.66 0 2.99-1.34 2.99-3S16.66 0 15 0c-1.66 0-3 1.34-3 3s1.34 3 3 3zM7 6c1.66 0 2.99-1.34 2.99-3S8.66 0 7 0C5.34 0 4 1.34 4 3s1.34 3 3 3zm0 2c-2.33 0-7 1.17-7 3.5V13c0 .55.45 1 1 1h12c.55 0 1-.45 1-1v-1.5C14 9.17 9.33 8 7 8zm8 0c-.29 0-.62.02-.97.05.02.01.03.03.04.04 1.14.83 1.93 1.94 1.93 3.41V13c0 .35-.07.69-.18 1H21c.55 0 1-.45 1-1v-1.5C22 9.17 17.33 8 15 8z" fill="#00838c"/></g></svg><svg width="44" height="44" viewBox="-2 -2 515.63 515.63" id="products" y="88" xmlns="http://www.w3.org/2000/svg"><g fill="#e0e0e0"><path d="M54.818 200.999c-15.23 0-28.171 5.327-38.832 15.987C5.33 227.642 0 240.583 0 255.813c0 15.223 5.33 28.172 15.99 38.83 10.66 10.656 23.604 15.984 38.832 15.984 15.225 0 28.167-5.328 38.828-15.984 10.657-10.657 15.987-23.606 15.987-38.83 0-15.23-5.33-28.171-15.99-38.828-10.658-10.656-23.601-15.986-38.829-15.986zM54.821 54.817c-15.23 0-28.171 5.33-38.832 15.987C5.333 81.464.003 94.405.003 109.632c0 15.229 5.327 28.171 15.986 38.831 10.66 10.657 23.604 15.985 38.832 15.985 15.225 0 28.167-5.329 38.828-15.985 10.657-10.66 15.987-23.603 15.987-38.831 0-15.227-5.33-28.168-15.987-38.828-10.656-10.657-23.598-15.987-38.828-15.987zM54.821 347.18c-15.23 0-28.175 5.325-38.832 15.981C5.333 373.824.003 386.767.003 401.989c0 15.235 5.327 28.171 15.986 38.834 10.66 10.657 23.604 15.985 38.832 15.985 15.225 0 28.167-5.328 38.828-15.985 10.657-10.663 15.987-23.599 15.987-38.834 0-15.223-5.33-28.172-15.987-38.828-10.656-10.656-23.598-15.981-38.828-15.981zM508.917 75.8c-1.813-1.803-3.949-2.708-6.427-2.708H155.313c-2.473 0-4.615.902-6.423 2.708-1.807 1.812-2.712 3.949-2.712 6.423v54.821c0 2.475.905 4.611 2.712 6.424 1.809 1.805 3.951 2.708 6.423 2.708H502.49c2.478 0 4.616-.9 6.427-2.708 1.81-1.812 2.71-3.949 2.71-6.424v-54.82c-.001-2.474-.904-4.615-2.71-6.424zM502.49 219.271H155.313c-2.473 0-4.615.9-6.423 2.712-1.807 1.807-2.712 3.949-2.712 6.423v54.819c0 2.472.905 4.613 2.712 6.421 1.809 1.813 3.951 2.714 6.423 2.714H502.49c2.478 0 4.616-.9 6.427-2.714 1.81-1.808 2.71-3.949 2.71-6.421v-54.819c0-2.474-.903-4.62-2.71-6.423-1.814-1.808-3.95-2.712-6.427-2.712zM502.49 365.447H155.313c-2.473 0-4.615.903-6.423 2.714-1.807 1.81-2.712 3.949-2.712 6.42V429.4c0 2.478.905 4.616 2.712 6.427 1.809 1.807 3.951 2.707 6.423 2.707H502.49c2.478 0 4.616-.9 6.427-2.707 1.81-1.811 2.71-3.949 2.71-6.427v-54.819c0-2.471-.903-4.617-2.71-6.42-1.814-1.804-3.95-2.714-6.427-2.714z"/></g></svg><svg width="44" height="44" viewBox="-2 -2 515.63 515.63" id="products_active" x="44" y="88" xmlns="http://www.w3.org/2000/svg"><g fill="#00838c"><path d="M54.818 200.999c-15.23 0-28.171 5.327-38.832 15.987C5.33 227.642 0 240.583 0 255.813c0 15.223 5.33 28.172 15.99 38.83 10.66 10.656 23.604 15.984 38.832 15.984 15.225 0 28.167-5.328 38.828-15.984 10.657-10.657 15.987-23.606 15.987-38.83 0-15.23-5.33-28.171-15.99-38.828-10.658-10.656-23.601-15.986-38.829-15.986zM54.821 54.817c-15.23 0-28.171 5.33-38.832 15.987C5.333 81.464.003 94.405.003 109.632c0 15.229 5.327 28.171 15.986 38.831 10.66 10.657 23.604 15.985 38.832 15.985 15.225 0 28.167-5.329 38.828-15.985 10.657-10.66 15.987-23.603 15.987-38.831 0-15.227-5.33-28.168-15.987-38.828-10.656-10.657-23.598-15.987-38.828-15.987zM54.821 347.18c-15.23 0-28.175 5.325-38.832 15.981C5.333 373.824.003 386.767.003 401.989c0 15.235 5.327 28.171 15.986 38.834 10.66 10.657 23.604 15.985 38.832 15.985 15.225 0 28.167-5.328 38.828-15.985 10.657-10.663 15.987-23.599 15.987-38.834 0-15.223-5.33-28.172-15.987-38.828-10.656-10.656-23.598-15.981-38.828-15.981zM508.917 75.8c-1.813-1.803-3.949-2.708-6.427-2.708H155.313c-2.473 0-4.615.902-6.423 2.708-1.807 1.812-2.712 3.949-2.712 6.423v54.821c0 2.475.905 4.611 2.712 6.424 1.809 1.805 3.951 2.708 6.423 2.708H502.49c2.478 0 4.616-.9 6.427-2.708 1.81-1.812 2.71-3.949 2.71-6.424v-54.82c-.001-2.474-.904-4.615-2.71-6.424zM502.49 219.271H155.313c-2.473 0-4.615.9-6.423 2.712-1.807 1.807-2.712 3.949-2.712 6.423v54.819c0 2.472.905 4.613 2.712 6.421 1.809 1.813 3.951 2.714 6.423 2.714H502.49c2.478 0 4.616-.9 6.427-2.714 1.81-1.808 2.71-3.949 2.71-6.421v-54.819c0-2.474-.903-4.62-2.71-6.423-1.814-1.808-3.95-2.712-6.427-2.712zM502.49 365.447H155.313c-2.473 0-4.615.903-6.423 2.714-1.807 1.81-2.712 3.949-2.712 6.42V429.4c0 2.478.905 4.616 2.712 6.427 1.809 1.807 3.951 2.707 6.423 2.707H502.49c2.478 0 4.616-.9 6.427-2.707 1.81-1.811 2.71-3.949 2.71-6.427v-54.819c0-2.471-.903-4.617-2.71-6.42-1.814-1.804-3.95-2.714-6.427-2.714z"/></g></svg></svg>